<mxfile host="app.diagrams.net" modified="2023-11-28T15:00:01.761Z" agent="Mozilla/5.0 (Windows NT 10.0; Win64; x64) AppleWebKit/537.36 (KHTML, like Gecko) Chrome/119.0.0.0 Safari/537.36" etag="Pfztojl7fHvRgtKBhFdt" version="22.1.4" type="device" pages="3">
  <diagram name="Student dashboard" id="eqFCrr45GRlI0DkMSjQY">
    <mxGraphModel dx="1050" dy="574" grid="1" gridSize="10" guides="1" tooltips="1" connect="1" arrows="1" fold="1" page="1" pageScale="1" pageWidth="827" pageHeight="1169" math="0" shadow="0">
      <root>
        <mxCell id="0" />
        <mxCell id="1" parent="0" />
        <mxCell id="Qa3SlvcVOTykm9FDPL1g-3" value="Student&#39;s dashboard" style="swimlane;whiteSpace=wrap;html=1;fontSize=14;" parent="1" vertex="1">
          <mxGeometry x="40" y="77.5" width="300" height="220" as="geometry" />
        </mxCell>
        <mxCell id="Qa3SlvcVOTykm9FDPL1g-4" value="See student profile" style="rounded=1;whiteSpace=wrap;html=1;fontSize=14;fillColor=#fff2cc;strokeColor=#d6b656;" parent="Qa3SlvcVOTykm9FDPL1g-3" vertex="1">
          <mxGeometry x="40" y="40" width="220" height="40" as="geometry" />
        </mxCell>
        <mxCell id="Qa3SlvcVOTykm9FDPL1g-5" value="All tournaments" style="rounded=1;whiteSpace=wrap;html=1;fontSize=14;fillColor=#fff2cc;strokeColor=#d6b656;" parent="Qa3SlvcVOTykm9FDPL1g-3" vertex="1">
          <mxGeometry x="40" y="100" width="220" height="40" as="geometry" />
        </mxCell>
        <mxCell id="Qa3SlvcVOTykm9FDPL1g-6" value="My battles" style="rounded=1;whiteSpace=wrap;html=1;fontSize=14;fillColor=#fff2cc;strokeColor=#d6b656;" parent="Qa3SlvcVOTykm9FDPL1g-3" vertex="1">
          <mxGeometry x="40" y="160" width="220" height="40" as="geometry" />
        </mxCell>
        <mxCell id="Qa3SlvcVOTykm9FDPL1g-7" value="" style="endArrow=classic;html=1;rounded=0;exitX=1;exitY=0.5;exitDx=0;exitDy=0;entryX=0;entryY=0.5;entryDx=0;entryDy=0;fontSize=14;" parent="1" source="Qa3SlvcVOTykm9FDPL1g-5" target="Qa3SlvcVOTykm9FDPL1g-8" edge="1">
          <mxGeometry width="50" height="50" relative="1" as="geometry">
            <mxPoint x="430" y="150" as="sourcePoint" />
            <mxPoint x="490" y="160" as="targetPoint" />
          </mxGeometry>
        </mxCell>
        <mxCell id="Qa3SlvcVOTykm9FDPL1g-8" value="All tournaments" style="swimlane;whiteSpace=wrap;html=1;fontSize=14;" parent="1" vertex="1">
          <mxGeometry x="370" y="135" width="165" height="125" as="geometry" />
        </mxCell>
        <mxCell id="Qa3SlvcVOTykm9FDPL1g-12" value="List of all tournaments" style="text;html=1;align=center;verticalAlign=middle;resizable=0;points=[];autosize=1;strokeColor=none;fillColor=none;fontSize=14;" parent="Qa3SlvcVOTykm9FDPL1g-8" vertex="1">
          <mxGeometry y="24" width="160" height="30" as="geometry" />
        </mxCell>
        <mxCell id="Qa3SlvcVOTykm9FDPL1g-14" value="- Tournament 1&lt;br style=&quot;font-size: 14px;&quot;&gt;- Tournament 2&lt;br style=&quot;font-size: 14px;&quot;&gt;- Tournament 3&lt;br style=&quot;font-size: 14px;&quot;&gt;..." style="text;html=1;align=center;verticalAlign=middle;resizable=0;points=[];autosize=1;strokeColor=none;fillColor=none;fontSize=14;" parent="Qa3SlvcVOTykm9FDPL1g-8" vertex="1">
          <mxGeometry y="48" width="120" height="80" as="geometry" />
        </mxCell>
        <mxCell id="Qa3SlvcVOTykm9FDPL1g-15" value="" style="endArrow=classic;html=1;rounded=0;exitX=0.997;exitY=0.195;exitDx=0;exitDy=0;exitPerimeter=0;fontSize=14;entryX=0;entryY=0.5;entryDx=0;entryDy=0;" parent="1" source="Qa3SlvcVOTykm9FDPL1g-14" target="Oq-7-J-Ro8cwWhJverXt-1" edge="1">
          <mxGeometry width="50" height="50" relative="1" as="geometry">
            <mxPoint x="520" y="160" as="sourcePoint" />
            <mxPoint x="600" y="170" as="targetPoint" />
          </mxGeometry>
        </mxCell>
        <mxCell id="Qa3SlvcVOTykm9FDPL1g-19" value="" style="endArrow=classic;html=1;rounded=0;exitX=0.5;exitY=1;exitDx=0;exitDy=0;entryX=0.5;entryY=0;entryDx=0;entryDy=0;fontSize=14;" parent="1" source="Qa3SlvcVOTykm9FDPL1g-6" target="Qa3SlvcVOTykm9FDPL1g-20" edge="1">
          <mxGeometry width="50" height="50" relative="1" as="geometry">
            <mxPoint x="320" y="190" as="sourcePoint" />
            <mxPoint x="380" y="290" as="targetPoint" />
          </mxGeometry>
        </mxCell>
        <mxCell id="Qa3SlvcVOTykm9FDPL1g-20" value="My battles" style="swimlane;whiteSpace=wrap;html=1;fontSize=14;" parent="1" vertex="1">
          <mxGeometry x="80" y="340" width="302.5" height="190" as="geometry" />
        </mxCell>
        <mxCell id="Qa3SlvcVOTykm9FDPL1g-21" value="List of all battles organized by tournament:" style="text;html=1;align=center;verticalAlign=middle;resizable=0;points=[];autosize=1;strokeColor=none;fillColor=none;fontSize=14;" parent="Qa3SlvcVOTykm9FDPL1g-20" vertex="1">
          <mxGeometry x="5" y="24" width="290" height="30" as="geometry" />
        </mxCell>
        <mxCell id="Qa3SlvcVOTykm9FDPL1g-22" value="- Tournament 1&lt;br style=&quot;font-size: 14px;&quot;&gt;&lt;span style=&quot;white-space: pre; font-size: 14px;&quot;&gt;&#x9;&lt;/span&gt;- Battle 1.1&lt;br style=&quot;font-size: 14px;&quot;&gt;&lt;span style=&quot;white-space: pre; font-size: 14px;&quot;&gt;&#x9;&lt;/span&gt;- Battle 1.2&lt;br style=&quot;font-size: 14px;&quot;&gt;- Tournament 2&lt;br style=&quot;font-size: 14px;&quot;&gt;&lt;span style=&quot;white-space: pre; font-size: 14px;&quot;&gt;&#x9;&lt;/span&gt;- Battle 2.1&lt;br style=&quot;font-size: 14px;&quot;&gt;&lt;span style=&quot;white-space: pre; font-size: 14px;&quot;&gt;&#x9;&lt;/span&gt;- Battle 2.2&lt;br style=&quot;font-size: 14px;&quot;&gt;..." style="text;html=1;align=center;verticalAlign=middle;resizable=0;points=[];autosize=1;strokeColor=none;fillColor=none;fontSize=14;" parent="Qa3SlvcVOTykm9FDPL1g-20" vertex="1">
          <mxGeometry x="5" y="54" width="120" height="130" as="geometry" />
        </mxCell>
        <mxCell id="Qa3SlvcVOTykm9FDPL1g-23" value="" style="endArrow=classic;html=1;rounded=0;exitX=1.006;exitY=0.231;exitDx=0;exitDy=0;exitPerimeter=0;entryX=0;entryY=0.5;entryDx=0;entryDy=0;fontSize=14;" parent="1" source="Qa3SlvcVOTykm9FDPL1g-22" target="Qa3SlvcVOTykm9FDPL1g-25" edge="1">
          <mxGeometry width="50" height="50" relative="1" as="geometry">
            <mxPoint x="322.5" y="260" as="sourcePoint" />
            <mxPoint x="532.5" y="395" as="targetPoint" />
          </mxGeometry>
        </mxCell>
        <mxCell id="Qa3SlvcVOTykm9FDPL1g-25" value="Battle dashboard" style="swimlane;whiteSpace=wrap;html=1;fontSize=14;" parent="1" vertex="1">
          <mxGeometry x="420" y="360" width="300" height="300" as="geometry" />
        </mxCell>
        <mxCell id="Qa3SlvcVOTykm9FDPL1g-28" value="Battle&#39;s ranking" style="swimlane;whiteSpace=wrap;html=1;startSize=40;fontSize=14;" parent="Qa3SlvcVOTykm9FDPL1g-25" vertex="1">
          <mxGeometry x="170" y="50" width="90" height="80" as="geometry" />
        </mxCell>
        <mxCell id="Qa3SlvcVOTykm9FDPL1g-29" value="Invite student (*)" style="rounded=1;whiteSpace=wrap;html=1;fontSize=14;labelBackgroundColor=none;fillColor=#fff2cc;strokeColor=#d6b656;" parent="Qa3SlvcVOTykm9FDPL1g-25" vertex="1">
          <mxGeometry x="40" y="185" width="220" height="40" as="geometry" />
        </mxCell>
        <mxCell id="Qa3SlvcVOTykm9FDPL1g-30" value="My team" style="swimlane;whiteSpace=wrap;html=1;startSize=40;fontSize=14;" parent="Qa3SlvcVOTykm9FDPL1g-25" vertex="1">
          <mxGeometry x="40" y="50" width="90" height="80" as="geometry" />
        </mxCell>
        <mxCell id="TNMWpftsrmkYmvqPjq0u-3" value="Leave team (*)" style="rounded=1;whiteSpace=wrap;html=1;fontSize=14;labelBackgroundColor=none;fillColor=#fff2cc;strokeColor=#d6b656;" parent="Qa3SlvcVOTykm9FDPL1g-25" vertex="1">
          <mxGeometry x="40" y="240" width="220" height="40" as="geometry" />
        </mxCell>
        <mxCell id="qNA26h1VEV_pxZKmDEy8-2" value="student username" style="rounded=0;whiteSpace=wrap;html=1;fillColor=#d5e8d4;strokeColor=#82b366;fontSize=14;" vertex="1" parent="Qa3SlvcVOTykm9FDPL1g-25">
          <mxGeometry x="50" y="150" width="200" height="30" as="geometry" />
        </mxCell>
        <mxCell id="Oq-7-J-Ro8cwWhJverXt-1" value="Tournament dashboard" style="swimlane;whiteSpace=wrap;html=1;startSize=24;fontSize=14;" parent="1" vertex="1">
          <mxGeometry x="570" y="70" width="231" height="235" as="geometry" />
        </mxCell>
        <mxCell id="Oq-7-J-Ro8cwWhJverXt-2" value="Tournament&#39;s ranking" style="swimlane;whiteSpace=wrap;html=1;startSize=40;fontSize=14;" parent="Oq-7-J-Ro8cwWhJverXt-1" vertex="1">
          <mxGeometry x="120" y="45" width="100" height="85" as="geometry" />
        </mxCell>
        <mxCell id="Oq-7-J-Ro8cwWhJverXt-3" value="Active badges" style="swimlane;whiteSpace=wrap;html=1;startSize=40;fontSize=14;" parent="Oq-7-J-Ro8cwWhJverXt-1" vertex="1">
          <mxGeometry x="11" y="45" width="99" height="85" as="geometry" />
        </mxCell>
        <mxCell id="EYySGUVC_HXEcQrXlCBC-1" value="List of battles" style="swimlane;whiteSpace=wrap;html=1;startSize=40;fontSize=14;" parent="Oq-7-J-Ro8cwWhJverXt-1" vertex="1">
          <mxGeometry x="41.5" y="150" width="148" height="70" as="geometry" />
        </mxCell>
      </root>
    </mxGraphModel>
  </diagram>
  <diagram id="6ma6yTve14gbqSJbeBRZ" name="Educator dashboard">
    <mxGraphModel dx="1167" dy="638" grid="1" gridSize="10" guides="1" tooltips="1" connect="1" arrows="1" fold="1" page="1" pageScale="1" pageWidth="827" pageHeight="1169" math="0" shadow="0">
      <root>
        <mxCell id="0" />
        <mxCell id="1" parent="0" />
        <mxCell id="VC_KYBVAALVG9Ox1doF0-1" value="Educator&#39;s dashboard" style="swimlane;whiteSpace=wrap;html=1;fontSize=14;" parent="1" vertex="1">
          <mxGeometry x="40" y="40" width="300" height="340" as="geometry" />
        </mxCell>
        <mxCell id="VC_KYBVAALVG9Ox1doF0-2" value="See student profile" style="rounded=1;whiteSpace=wrap;html=1;fontSize=14;fillColor=#fff2cc;strokeColor=#d6b656;" parent="VC_KYBVAALVG9Ox1doF0-1" vertex="1">
          <mxGeometry x="40" y="40" width="220" height="40" as="geometry" />
        </mxCell>
        <mxCell id="VC_KYBVAALVG9Ox1doF0-3" value="All tournaments" style="rounded=1;whiteSpace=wrap;html=1;fontSize=14;fillColor=#fff2cc;strokeColor=#d6b656;" parent="VC_KYBVAALVG9Ox1doF0-1" vertex="1">
          <mxGeometry x="40" y="100" width="220" height="40" as="geometry" />
        </mxCell>
        <mxCell id="VC_KYBVAALVG9Ox1doF0-4" value="Create new tournament" style="rounded=1;whiteSpace=wrap;html=1;fontSize=14;fillColor=#fff2cc;strokeColor=#d6b656;" parent="VC_KYBVAALVG9Ox1doF0-1" vertex="1">
          <mxGeometry x="40" y="160" width="220" height="40" as="geometry" />
        </mxCell>
        <mxCell id="VC_KYBVAALVG9Ox1doF0-20" value="My tournaments" style="rounded=1;whiteSpace=wrap;html=1;fontSize=14;fillColor=#fff2cc;strokeColor=#d6b656;" parent="VC_KYBVAALVG9Ox1doF0-1" vertex="1">
          <mxGeometry x="40" y="220" width="220" height="40" as="geometry" />
        </mxCell>
        <mxCell id="VC_KYBVAALVG9Ox1doF0-21" value="My battles" style="rounded=1;whiteSpace=wrap;html=1;fontSize=14;fillColor=#fff2cc;strokeColor=#d6b656;" parent="VC_KYBVAALVG9Ox1doF0-1" vertex="1">
          <mxGeometry x="40" y="280" width="220" height="40" as="geometry" />
        </mxCell>
        <mxCell id="VC_KYBVAALVG9Ox1doF0-5" value="" style="endArrow=classic;html=1;rounded=0;entryX=0;entryY=0.5;entryDx=0;entryDy=0;fontSize=14;exitX=1;exitY=0.5;exitDx=0;exitDy=0;" parent="1" source="VC_KYBVAALVG9Ox1doF0-4" target="VC_KYBVAALVG9Ox1doF0-6" edge="1">
          <mxGeometry width="50" height="50" relative="1" as="geometry">
            <mxPoint x="300" y="160" as="sourcePoint" />
            <mxPoint x="490" y="160" as="targetPoint" />
          </mxGeometry>
        </mxCell>
        <mxCell id="VC_KYBVAALVG9Ox1doF0-6" value="Create tournament" style="swimlane;whiteSpace=wrap;html=1;fontSize=14;" parent="1" vertex="1">
          <mxGeometry x="385" y="100" width="260" height="130" as="geometry" />
        </mxCell>
        <mxCell id="QovsHv_9VBOWK29IREkB-1" value="Create badge" style="rounded=1;whiteSpace=wrap;html=1;fontSize=14;fillColor=#fff2cc;strokeColor=#d6b656;" parent="VC_KYBVAALVG9Ox1doF0-6" vertex="1">
          <mxGeometry x="22" y="74" width="220" height="40" as="geometry" />
        </mxCell>
        <mxCell id="pLuIyB9MPsEIruZ9QLj1-5" value="Form to be compiled" style="rounded=0;whiteSpace=wrap;html=1;fillColor=#d5e8d4;strokeColor=#82b366;fontSize=14;" vertex="1" parent="VC_KYBVAALVG9Ox1doF0-6">
          <mxGeometry x="31" y="35" width="200" height="30" as="geometry" />
        </mxCell>
        <mxCell id="VC_KYBVAALVG9Ox1doF0-11" value="" style="endArrow=classic;html=1;rounded=0;entryX=0.5;entryY=0;entryDx=0;entryDy=0;fontSize=14;" parent="1" source="VC_KYBVAALVG9Ox1doF0-21" target="VC_KYBVAALVG9Ox1doF0-12" edge="1">
          <mxGeometry width="50" height="50" relative="1" as="geometry">
            <mxPoint x="190" y="440" as="sourcePoint" />
            <mxPoint x="380" y="290" as="targetPoint" />
          </mxGeometry>
        </mxCell>
        <mxCell id="VC_KYBVAALVG9Ox1doF0-12" value="All battles" style="swimlane;whiteSpace=wrap;html=1;fontSize=14;" parent="1" vertex="1">
          <mxGeometry x="40" y="450" width="292.5" height="190" as="geometry" />
        </mxCell>
        <mxCell id="VC_KYBVAALVG9Ox1doF0-13" value="List of all battles organized by tournament:" style="text;html=1;align=center;verticalAlign=middle;resizable=0;points=[];autosize=1;strokeColor=none;fillColor=none;fontSize=14;" parent="VC_KYBVAALVG9Ox1doF0-12" vertex="1">
          <mxGeometry x="2.5" y="30" width="290" height="30" as="geometry" />
        </mxCell>
        <mxCell id="VC_KYBVAALVG9Ox1doF0-14" value="- Tournament 1&lt;br style=&quot;font-size: 14px;&quot;&gt;&lt;span style=&quot;white-space: pre; font-size: 14px;&quot;&gt;&#x9;&lt;/span&gt;- Battle 1.1&lt;br style=&quot;font-size: 14px;&quot;&gt;&lt;span style=&quot;white-space: pre; font-size: 14px;&quot;&gt;&#x9;&lt;/span&gt;- Battle 1.2&lt;br style=&quot;font-size: 14px;&quot;&gt;- Tournament 2&lt;br style=&quot;font-size: 14px;&quot;&gt;&lt;span style=&quot;white-space: pre; font-size: 14px;&quot;&gt;&#x9;&lt;/span&gt;- Battle 2.1&lt;br style=&quot;font-size: 14px;&quot;&gt;&lt;span style=&quot;white-space: pre; font-size: 14px;&quot;&gt;&#x9;&lt;/span&gt;- Battle 2.2&lt;br style=&quot;font-size: 14px;&quot;&gt;..." style="text;html=1;align=center;verticalAlign=middle;resizable=0;points=[];autosize=1;strokeColor=none;fillColor=none;fontSize=14;" parent="VC_KYBVAALVG9Ox1doF0-12" vertex="1">
          <mxGeometry x="12.5" y="50" width="120" height="130" as="geometry" />
        </mxCell>
        <mxCell id="VC_KYBVAALVG9Ox1doF0-15" value="" style="endArrow=classic;html=1;rounded=0;exitX=1.006;exitY=0.231;exitDx=0;exitDy=0;exitPerimeter=0;entryX=0.531;entryY=-0.013;entryDx=0;entryDy=0;fontSize=14;entryPerimeter=0;" parent="1" source="VC_KYBVAALVG9Ox1doF0-14" target="VC_KYBVAALVG9Ox1doF0-16" edge="1">
          <mxGeometry width="50" height="50" relative="1" as="geometry">
            <mxPoint x="310" y="230" as="sourcePoint" />
            <mxPoint x="520" y="365" as="targetPoint" />
          </mxGeometry>
        </mxCell>
        <mxCell id="VC_KYBVAALVG9Ox1doF0-16" value="Manage battle" style="swimlane;whiteSpace=wrap;html=1;fontSize=14;" parent="1" vertex="1">
          <mxGeometry x="154" y="740" width="390" height="160" as="geometry" />
        </mxCell>
        <mxCell id="VC_KYBVAALVG9Ox1doF0-17" value="Battle&#39;s ranking" style="swimlane;whiteSpace=wrap;html=1;startSize=40;fontSize=14;" parent="VC_KYBVAALVG9Ox1doF0-16" vertex="1">
          <mxGeometry x="280" y="50" width="90" height="80" as="geometry" />
        </mxCell>
        <mxCell id="VC_KYBVAALVG9Ox1doF0-18" value="Perform manual evaluation (*)" style="rounded=1;whiteSpace=wrap;html=1;fontSize=14;fillColor=#fff2cc;strokeColor=#d6b656;" parent="VC_KYBVAALVG9Ox1doF0-16" vertex="1">
          <mxGeometry x="30" y="40" width="220" height="40" as="geometry" />
        </mxCell>
        <mxCell id="VC_KYBVAALVG9Ox1doF0-22" value="Close consolidation stage (*)" style="rounded=1;whiteSpace=wrap;html=1;fontSize=14;fillColor=#fff2cc;strokeColor=#d6b656;" parent="VC_KYBVAALVG9Ox1doF0-16" vertex="1">
          <mxGeometry x="30" y="99" width="220" height="40" as="geometry" />
        </mxCell>
        <mxCell id="VC_KYBVAALVG9Ox1doF0-25" value="" style="endArrow=classic;html=1;rounded=0;exitX=1;exitY=0.5;exitDx=0;exitDy=0;entryX=0;entryY=0.5;entryDx=0;entryDy=0;fontSize=14;" parent="1" source="VC_KYBVAALVG9Ox1doF0-20" target="VC_KYBVAALVG9Ox1doF0-26" edge="1">
          <mxGeometry width="50" height="50" relative="1" as="geometry">
            <mxPoint x="200" y="370" as="sourcePoint" />
            <mxPoint x="440" y="320" as="targetPoint" />
          </mxGeometry>
        </mxCell>
        <mxCell id="VC_KYBVAALVG9Ox1doF0-26" value="My tournaments" style="swimlane;whiteSpace=wrap;html=1;fontSize=14;" parent="1" vertex="1">
          <mxGeometry x="410" y="250" width="170" height="130" as="geometry" />
        </mxCell>
        <mxCell id="OZ_0LRhinvWxB8M8GtEa-1" value="- Tournament 1&lt;br style=&quot;font-size: 14px;&quot;&gt;- Tournament 2&lt;br style=&quot;font-size: 14px;&quot;&gt;- Tournament 3&lt;br style=&quot;font-size: 14px;&quot;&gt;..." style="text;html=1;align=center;verticalAlign=middle;resizable=0;points=[];autosize=1;strokeColor=none;fillColor=none;fontSize=14;" parent="VC_KYBVAALVG9Ox1doF0-26" vertex="1">
          <mxGeometry y="53" width="120" height="80" as="geometry" />
        </mxCell>
        <mxCell id="OZ_0LRhinvWxB8M8GtEa-2" value="List my tournaments:" style="text;html=1;align=center;verticalAlign=middle;resizable=0;points=[];autosize=1;strokeColor=none;fillColor=none;fontSize=14;" parent="VC_KYBVAALVG9Ox1doF0-26" vertex="1">
          <mxGeometry x="4" y="30" width="150" height="30" as="geometry" />
        </mxCell>
        <mxCell id="OZ_0LRhinvWxB8M8GtEa-3" value="" style="endArrow=classic;html=1;rounded=0;exitX=0.983;exitY=0.42;exitDx=0;exitDy=0;exitPerimeter=0;fontSize=14;" parent="1" source="OZ_0LRhinvWxB8M8GtEa-1" target="OZ_0LRhinvWxB8M8GtEa-4" edge="1">
          <mxGeometry width="50" height="50" relative="1" as="geometry">
            <mxPoint x="530" y="174" as="sourcePoint" />
            <mxPoint x="548" y="480" as="targetPoint" />
          </mxGeometry>
        </mxCell>
        <mxCell id="OZ_0LRhinvWxB8M8GtEa-4" value="Manage tournament" style="swimlane;whiteSpace=wrap;html=1;fontSize=14;" parent="1" vertex="1">
          <mxGeometry x="370" y="450" width="290" height="260" as="geometry" />
        </mxCell>
        <mxCell id="OZ_0LRhinvWxB8M8GtEa-6" value="Invite educator" style="rounded=1;whiteSpace=wrap;html=1;fontSize=14;fillColor=#fff2cc;strokeColor=#d6b656;" parent="OZ_0LRhinvWxB8M8GtEa-4" vertex="1">
          <mxGeometry x="35" y="139" width="220" height="40" as="geometry" />
        </mxCell>
        <mxCell id="OZ_0LRhinvWxB8M8GtEa-7" value="Create battle" style="rounded=1;whiteSpace=wrap;html=1;fontSize=14;fillColor=#fff2cc;strokeColor=#d6b656;" parent="OZ_0LRhinvWxB8M8GtEa-4" vertex="1">
          <mxGeometry x="35" y="49" width="220" height="40" as="geometry" />
        </mxCell>
        <mxCell id="OZ_0LRhinvWxB8M8GtEa-8" value="Close tournament (*)" style="rounded=1;whiteSpace=wrap;html=1;fontSize=14;fillColor=#fff2cc;strokeColor=#d6b656;" parent="OZ_0LRhinvWxB8M8GtEa-4" vertex="1">
          <mxGeometry x="35" y="190" width="220" height="40" as="geometry" />
        </mxCell>
        <mxCell id="pLuIyB9MPsEIruZ9QLj1-1" value="educator username" style="rounded=0;whiteSpace=wrap;html=1;fillColor=#d5e8d4;strokeColor=#82b366;fontSize=14;" vertex="1" parent="OZ_0LRhinvWxB8M8GtEa-4">
          <mxGeometry x="44" y="103" width="200" height="30" as="geometry" />
        </mxCell>
        <mxCell id="QovsHv_9VBOWK29IREkB-2" value="" style="endArrow=classic;html=1;rounded=0;exitX=1;exitY=0.5;exitDx=0;exitDy=0;fontSize=14;" parent="1" source="VC_KYBVAALVG9Ox1doF0-3" edge="1">
          <mxGeometry width="50" height="50" relative="1" as="geometry">
            <mxPoint x="310" y="290" as="sourcePoint" />
            <mxPoint x="420" y="50" as="targetPoint" />
          </mxGeometry>
        </mxCell>
        <mxCell id="QovsHv_9VBOWK29IREkB-3" value="&lt;font style=&quot;font-size: 14px;&quot;&gt;(All tournaments)&lt;/font&gt;" style="text;html=1;align=center;verticalAlign=middle;resizable=0;points=[];autosize=1;strokeColor=none;fillColor=none;" parent="1" vertex="1">
          <mxGeometry x="420" y="30" width="130" height="30" as="geometry" />
        </mxCell>
        <mxCell id="QovsHv_9VBOWK29IREkB-4" value="Create badge" style="swimlane;whiteSpace=wrap;html=1;fontSize=14;" parent="1" vertex="1">
          <mxGeometry x="620" y="250" width="192" height="70" as="geometry" />
        </mxCell>
        <mxCell id="pLuIyB9MPsEIruZ9QLj1-4" value="Form to be compiled" style="rounded=0;whiteSpace=wrap;html=1;fillColor=#d5e8d4;strokeColor=#82b366;fontSize=14;" vertex="1" parent="QovsHv_9VBOWK29IREkB-4">
          <mxGeometry x="20" y="30" width="160" height="30" as="geometry" />
        </mxCell>
        <mxCell id="QovsHv_9VBOWK29IREkB-7" value="" style="endArrow=classic;html=1;rounded=0;exitX=1;exitY=0.5;exitDx=0;exitDy=0;fontSize=14;entryX=0.5;entryY=1;entryDx=0;entryDy=0;edgeStyle=orthogonalEdgeStyle;" parent="1" source="OZ_0LRhinvWxB8M8GtEa-7" target="IaRVSDhwJq8iFzafPd8e-5" edge="1">
          <mxGeometry width="50" height="50" relative="1" as="geometry">
            <mxPoint x="538" y="347" as="sourcePoint" />
            <mxPoint x="533" y="420" as="targetPoint" />
          </mxGeometry>
        </mxCell>
        <mxCell id="IaRVSDhwJq8iFzafPd8e-5" value="Create battle" style="swimlane;whiteSpace=wrap;html=1;fontSize=14;" parent="1" vertex="1">
          <mxGeometry x="626" y="350" width="190" height="70" as="geometry" />
        </mxCell>
        <mxCell id="pLuIyB9MPsEIruZ9QLj1-3" value="Form to be compiled" style="rounded=0;whiteSpace=wrap;html=1;fillColor=#d5e8d4;strokeColor=#82b366;fontSize=14;" vertex="1" parent="IaRVSDhwJq8iFzafPd8e-5">
          <mxGeometry x="14" y="31" width="165" height="30" as="geometry" />
        </mxCell>
        <mxCell id="IaRVSDhwJq8iFzafPd8e-7" value="" style="endArrow=classic;html=1;rounded=0;exitX=1;exitY=0.5;exitDx=0;exitDy=0;fontSize=14;entryX=0.5;entryY=0;entryDx=0;entryDy=0;edgeStyle=orthogonalEdgeStyle;" parent="1" source="QovsHv_9VBOWK29IREkB-1" target="QovsHv_9VBOWK29IREkB-4" edge="1">
          <mxGeometry width="50" height="50" relative="1" as="geometry">
            <mxPoint x="635" y="525" as="sourcePoint" />
            <mxPoint x="725" y="410" as="targetPoint" />
          </mxGeometry>
        </mxCell>
        <mxCell id="IaRVSDhwJq8iFzafPd8e-8" value="Perfom manual evaluation" style="swimlane;whiteSpace=wrap;html=1;fontSize=14;" parent="1" vertex="1">
          <mxGeometry x="50" y="660" width="220" height="70" as="geometry" />
        </mxCell>
        <mxCell id="pLuIyB9MPsEIruZ9QLj1-2" value="Form to be compiled" style="rounded=0;whiteSpace=wrap;html=1;fillColor=#d5e8d4;strokeColor=#82b366;fontSize=14;" vertex="1" parent="IaRVSDhwJq8iFzafPd8e-8">
          <mxGeometry x="10" y="30" width="200" height="30" as="geometry" />
        </mxCell>
        <mxCell id="IaRVSDhwJq8iFzafPd8e-11" style="edgeStyle=orthogonalEdgeStyle;rounded=0;orthogonalLoop=1;jettySize=auto;html=1;exitX=0;exitY=0.5;exitDx=0;exitDy=0;entryX=0;entryY=0.5;entryDx=0;entryDy=0;" parent="1" source="VC_KYBVAALVG9Ox1doF0-18" target="IaRVSDhwJq8iFzafPd8e-8" edge="1">
          <mxGeometry relative="1" as="geometry" />
        </mxCell>
      </root>
    </mxGraphModel>
  </diagram>
  <diagram id="7pK9DDgjAHsq6PjE2I_2" name="Login-Register">
    <mxGraphModel dx="1105" dy="604" grid="1" gridSize="10" guides="1" tooltips="1" connect="1" arrows="1" fold="1" page="1" pageScale="1" pageWidth="827" pageHeight="1169" math="0" shadow="0">
      <root>
        <mxCell id="0" />
        <mxCell id="1" parent="0" />
        <mxCell id="Js1DhRI2FP9c2BkqCy15-1" value="&lt;font style=&quot;font-size: 14px;&quot;&gt;User registration&lt;/font&gt;" style="swimlane;whiteSpace=wrap;html=1;align=left;fontSize=14;" parent="1" vertex="1">
          <mxGeometry x="440" y="60" width="280" height="410" as="geometry" />
        </mxCell>
        <mxCell id="Js1DhRI2FP9c2BkqCy15-2" value="&amp;nbsp;e-mail" style="rounded=0;whiteSpace=wrap;html=1;align=center;fontSize=14;fillColor=#d5e8d4;strokeColor=#82b366;" parent="Js1DhRI2FP9c2BkqCy15-1" vertex="1">
          <mxGeometry x="40.13" y="195" width="199.87" height="30" as="geometry" />
        </mxCell>
        <mxCell id="Js1DhRI2FP9c2BkqCy15-5" value="password" style="rounded=0;whiteSpace=wrap;html=1;align=center;fontSize=14;fillColor=#d5e8d4;strokeColor=#82b366;" parent="Js1DhRI2FP9c2BkqCy15-1" vertex="1">
          <mxGeometry x="40.13" y="250" width="200" height="30" as="geometry" />
        </mxCell>
        <mxCell id="Js1DhRI2FP9c2BkqCy15-6" value="" style="whiteSpace=wrap;html=1;aspect=fixed;fontSize=14;fillColor=#d5e8d4;strokeColor=#82b366;" parent="Js1DhRI2FP9c2BkqCy15-1" vertex="1">
          <mxGeometry x="40.13" y="308.75" width="12.5" height="12.5" as="geometry" />
        </mxCell>
        <mxCell id="Js1DhRI2FP9c2BkqCy15-7" value="&lt;font style=&quot;font-size: 14px;&quot;&gt;Educator&lt;/font&gt;" style="text;html=1;align=center;verticalAlign=middle;resizable=0;points=[];autosize=1;strokeColor=none;fillColor=none;fontSize=14;" parent="Js1DhRI2FP9c2BkqCy15-1" vertex="1">
          <mxGeometry x="52.63" y="300" width="80" height="30" as="geometry" />
        </mxCell>
        <mxCell id="Js1DhRI2FP9c2BkqCy15-8" value="&lt;font style=&quot;font-size: 14px;&quot;&gt;Student&lt;/font&gt;" style="text;html=1;align=center;verticalAlign=middle;resizable=0;points=[];autosize=1;strokeColor=none;fillColor=none;fontSize=14;" parent="Js1DhRI2FP9c2BkqCy15-1" vertex="1">
          <mxGeometry x="172.5" y="300" width="70" height="30" as="geometry" />
        </mxCell>
        <mxCell id="M2zBHJO0SpWkaPpb_EHT-2" value="&lt;div style=&quot;text-align: justify; font-size: 14px;&quot;&gt;&lt;span style=&quot;background-color: initial; font-size: 14px;&quot;&gt;name&lt;/span&gt;&lt;/div&gt;" style="rounded=0;whiteSpace=wrap;html=1;align=center;fontSize=14;fillColor=#d5e8d4;strokeColor=#82b366;" parent="Js1DhRI2FP9c2BkqCy15-1" vertex="1">
          <mxGeometry x="40.13" y="45" width="199.87" height="30" as="geometry" />
        </mxCell>
        <mxCell id="M2zBHJO0SpWkaPpb_EHT-1" value="surname" style="rounded=0;whiteSpace=wrap;html=1;align=center;fontSize=14;fillColor=#d5e8d4;strokeColor=#82b366;" parent="Js1DhRI2FP9c2BkqCy15-1" vertex="1">
          <mxGeometry x="40.13" y="95" width="199.87" height="30" as="geometry" />
        </mxCell>
        <mxCell id="M2zBHJO0SpWkaPpb_EHT-3" value="username" style="rounded=0;whiteSpace=wrap;html=1;align=center;fontSize=14;fillColor=#d5e8d4;strokeColor=#82b366;" parent="Js1DhRI2FP9c2BkqCy15-1" vertex="1">
          <mxGeometry x="40.13" y="145" width="199.87" height="30" as="geometry" />
        </mxCell>
        <mxCell id="3dZohehs4q2R133ugoLK-1" value="Sign up" style="rounded=1;whiteSpace=wrap;html=1;fontSize=14;fillColor=#fff2cc;strokeColor=#d6b656;" parent="Js1DhRI2FP9c2BkqCy15-1" vertex="1">
          <mxGeometry x="40.07" y="350" width="199.87" height="40" as="geometry" />
        </mxCell>
        <mxCell id="3dZohehs4q2R133ugoLK-3" value="" style="whiteSpace=wrap;html=1;aspect=fixed;fontSize=14;fillColor=#d5e8d4;strokeColor=#82b366;" parent="Js1DhRI2FP9c2BkqCy15-1" vertex="1">
          <mxGeometry x="160" y="308.75" width="12.5" height="12.5" as="geometry" />
        </mxCell>
        <mxCell id="3dZohehs4q2R133ugoLK-5" value="&lt;font style=&quot;font-size: 14px;&quot;&gt;User login&lt;/font&gt;" style="swimlane;whiteSpace=wrap;html=1;align=left;fontSize=14;" parent="1" vertex="1">
          <mxGeometry x="80" y="260" width="280" height="220" as="geometry" />
        </mxCell>
        <mxCell id="3dZohehs4q2R133ugoLK-11" value="&lt;div style=&quot;text-align: justify; font-size: 14px;&quot;&gt;&lt;span style=&quot;background-color: initial; font-size: 14px;&quot;&gt;username&lt;/span&gt;&lt;/div&gt;" style="rounded=0;whiteSpace=wrap;html=1;align=center;fontSize=14;fillColor=#d5e8d4;strokeColor=#82b366;" parent="3dZohehs4q2R133ugoLK-5" vertex="1">
          <mxGeometry x="40.13" y="45" width="199.87" height="30" as="geometry" />
        </mxCell>
        <mxCell id="3dZohehs4q2R133ugoLK-12" value="password" style="rounded=0;whiteSpace=wrap;html=1;align=center;fontSize=14;fillColor=#d5e8d4;strokeColor=#82b366;" parent="3dZohehs4q2R133ugoLK-5" vertex="1">
          <mxGeometry x="40.13" y="95" width="199.87" height="30" as="geometry" />
        </mxCell>
        <mxCell id="3dZohehs4q2R133ugoLK-14" value="Log in" style="rounded=1;whiteSpace=wrap;html=1;fontSize=14;fillColor=#fff2cc;strokeColor=#d6b656;" parent="3dZohehs4q2R133ugoLK-5" vertex="1">
          <mxGeometry x="40.07" y="150" width="199.87" height="40" as="geometry" />
        </mxCell>
        <mxCell id="3dZohehs4q2R133ugoLK-16" value="&lt;font style=&quot;font-size: 14px;&quot;&gt;Front page&lt;/font&gt;" style="swimlane;whiteSpace=wrap;html=1;align=left;fontSize=14;" parent="1" vertex="1">
          <mxGeometry x="80" y="56" width="280" height="164" as="geometry" />
        </mxCell>
        <mxCell id="3dZohehs4q2R133ugoLK-19" value="Log in" style="rounded=1;whiteSpace=wrap;html=1;fontSize=14;fillColor=#fff2cc;strokeColor=#d6b656;" parent="3dZohehs4q2R133ugoLK-16" vertex="1">
          <mxGeometry x="40.06" y="104" width="199.87" height="40" as="geometry" />
        </mxCell>
        <mxCell id="3dZohehs4q2R133ugoLK-20" value="Sign in" style="rounded=1;whiteSpace=wrap;html=1;fontSize=14;fillColor=#fff2cc;strokeColor=#d6b656;" parent="3dZohehs4q2R133ugoLK-16" vertex="1">
          <mxGeometry x="40.059999999999995" y="44" width="199.87" height="40" as="geometry" />
        </mxCell>
        <mxCell id="3dZohehs4q2R133ugoLK-21" value="" style="endArrow=classic;html=1;rounded=0;exitX=0.5;exitY=1;exitDx=0;exitDy=0;entryX=0.5;entryY=0;entryDx=0;entryDy=0;fontSize=14;" parent="1" source="3dZohehs4q2R133ugoLK-19" target="3dZohehs4q2R133ugoLK-5" edge="1">
          <mxGeometry width="50" height="50" relative="1" as="geometry">
            <mxPoint x="330" y="280" as="sourcePoint" />
            <mxPoint x="380" y="230" as="targetPoint" />
          </mxGeometry>
        </mxCell>
        <mxCell id="3dZohehs4q2R133ugoLK-22" value="" style="endArrow=classic;html=1;rounded=0;exitX=1;exitY=0.5;exitDx=0;exitDy=0;entryX=0;entryY=0.25;entryDx=0;entryDy=0;fontSize=14;" parent="1" source="3dZohehs4q2R133ugoLK-20" target="Js1DhRI2FP9c2BkqCy15-1" edge="1">
          <mxGeometry width="50" height="50" relative="1" as="geometry">
            <mxPoint x="230" y="210" as="sourcePoint" />
            <mxPoint x="230" y="270" as="targetPoint" />
          </mxGeometry>
        </mxCell>
      </root>
    </mxGraphModel>
  </diagram>
</mxfile>
